<svg width="100" height="100" viewBox="0 0 100 100" fill="none" xmlns="http://www.w3.org/2000/svg">
  <style>
    #top {
      fill: url(#gradientTopLight);
    }

    #bot {
      fill: url(#gradientBotLight);
    }

    @media (prefers-color-scheme: dark) {
      #top {
        fill: url(#gradientTopDark);
      }

      #bot {
        fill: url(#gradientBotDark);
      }
    }
  </style>
  <mask id="shape-mask" fill="white">
    <path d="M0 25.6C0 16.6392 0 12.1587 1.7439 8.73615C3.27787 5.72556 5.72556 3.27787 8.73615 1.7439C12.1587 0 16.6392 0 25.6 0H74.4C83.3608 0 87.8413 0 91.2638 1.7439C94.2744 3.27787 96.7221 5.72556 98.2561 8.73615C100 12.1587 100 16.6392 100 25.6V74.4C100 83.3608 100 87.8413 98.2561 91.2638C96.7221 94.2744 94.2744 96.7221 91.2638 98.2561C87.8413 100 83.3608 100 74.4 100H25.6C16.6392 100 12.1587 100 8.73615 98.2561C5.72556 96.7221 3.27787 94.2744 1.7439 91.2638C0 87.8413 0 83.3608 0 74.4V25.6Z" />
  </mask>
  <path id="top" d="M0 25.6C0 16.6392 0 12.1587 1.7439 8.73615C3.27787 5.72556 5.72556 3.27787 8.73615 1.7439C12.1587 0 16.6392 0 25.6 0H74.4C83.3608 0 87.8413 0 91.2638 1.7439C94.2744 3.27787 96.7221 5.72556 98.2561 8.73615C100 12.1587 100 16.6392 100 25.6V74.4C100 83.3608 100 87.8413 98.2561 91.2638C96.7221 94.2744 94.2744 96.7221 91.2638 98.2561C87.8413 100 83.3608 100 74.4 100H25.6C16.6392 100 12.1587 100 8.73615 98.2561C5.72556 96.7221 3.27787 94.2744 1.7439 91.2638C0 87.8413 0 83.3608 0 74.4V25.6Z" />
  <path id="bot" mask="url(#shape-mask)" d="M0 0H100H0ZM100 84C100 96.1503 90.1503 106 78 106H22C9.84974 106 0 96.1503 0 84C0 89.5228 7.16344 94 16 94H84C92.8366 94 100 89.5228 100 84ZM0 100V0V100ZM100 0V100V0Z" />
  <defs>
    <linearGradient id="gradientTopDark" x1="50" y1="0" x2="50" y2="100" gradientUnits="userSpaceOnUse">
      <stop stop-color="#2C2B2B" />
      <stop offset="1" stop-color="#383838" />
    </linearGradient>
    <linearGradient id="gradientBotDark" x1="50" y1="86" x2="50" y2="100" gradientUnits="userSpaceOnUse">
      <stop stop-color="#353535" />
      <stop offset="1" stop-color="#1C1C1C" />
    </linearGradient>
    <linearGradient id="gradientTopLight" x1="50" y1="0" x2="50" y2="100" gradientUnits="userSpaceOnUse">
      <stop stop-color="#E6E6E6" />
      <stop offset="1" stop-color="#F2F2F2" />
    </linearGradient>
    <linearGradient id="gradientBotLight" x1="50" y1="86.5" x2="50" y2="100" gradientUnits="userSpaceOnUse">
      <stop stop-color="#E8E8E8" />
      <stop offset="1" stop-color="#B5B5B5" />
    </linearGradient>
  </defs>
</svg>