<svg width="100" height="100" viewBox="0 0 100 100" fill="none" xmlns="http://www.w3.org/2000/svg">
<mask id="path-1-inside-1_520_661" fill="white">
<path d="M0 25.6C0 16.6392 0 12.1587 1.7439 8.73615C3.27787 5.72556 5.72556 3.27787 8.73615 1.7439C12.1587 0 16.6392 0 25.6 0H74.4C83.3608 0 87.8413 0 91.2638 1.7439C94.2744 3.27787 96.7221 5.72556 98.2561 8.73615C100 12.1587 100 16.6392 100 25.6V74.4C100 83.3608 100 87.8413 98.2561 91.2638C96.7221 94.2744 94.2744 96.7221 91.2638 98.2561C87.8413 100 83.3608 100 74.4 100H25.6C16.6392 100 12.1587 100 8.73615 98.2561C5.72556 96.7221 3.27787 94.2744 1.7439 91.2638C0 87.8413 0 83.3608 0 74.4V25.6Z"/>
</mask>
<path d="M0 25.6C0 16.6392 0 12.1587 1.7439 8.73615C3.27787 5.72556 5.72556 3.27787 8.73615 1.7439C12.1587 0 16.6392 0 25.6 0H74.4C83.3608 0 87.8413 0 91.2638 1.7439C94.2744 3.27787 96.7221 5.72556 98.2561 8.73615C100 12.1587 100 16.6392 100 25.6V74.4C100 83.3608 100 87.8413 98.2561 91.2638C96.7221 94.2744 94.2744 96.7221 91.2638 98.2561C87.8413 100 83.3608 100 74.4 100H25.6C16.6392 100 12.1587 100 8.73615 98.2561C5.72556 96.7221 3.27787 94.2744 1.7439 91.2638C0 87.8413 0 83.3608 0 74.4V25.6Z" fill="#F2F2F2"/>
<g filter="url(#filter0_i_520_661)">
<path d="M30.5227 63.5V34.4091H34.0455V48.8409H34.3864L47.4545 34.4091H52.0568L39.8409 47.5341L52.0568 63.5H47.7955L37.6818 49.9773L34.0455 54.0682V63.5H30.5227ZM60.224 63.9545C58.2543 63.9545 56.5261 63.4858 55.0393 62.5483C53.5621 61.6108 52.4068 60.2992 51.5734 58.6136C50.7496 56.928 50.3376 54.9583 50.3376 52.7045C50.3376 50.4318 50.7496 48.4479 51.5734 46.7528C52.4068 45.0578 53.5621 43.7415 55.0393 42.804C56.5261 41.8665 58.2543 41.3977 60.224 41.3977C62.1937 41.3977 63.9172 41.8665 65.3945 42.804C66.8812 43.7415 68.0365 45.0578 68.8604 46.7528C69.6937 48.4479 70.1104 50.4318 70.1104 52.7045C70.1104 54.9583 69.6937 56.928 68.8604 58.6136C68.0365 60.2992 66.8812 61.6108 65.3945 62.5483C63.9172 63.4858 62.1937 63.9545 60.224 63.9545ZM60.224 60.9432C61.7202 60.9432 62.9513 60.5597 63.9172 59.7926C64.8831 59.0256 65.5981 58.017 66.0621 56.767C66.5261 55.517 66.7581 54.1629 66.7581 52.7045C66.7581 51.2462 66.5261 49.8873 66.0621 48.6278C65.5981 47.3684 64.8831 46.3504 63.9172 45.5739C62.9513 44.7973 61.7202 44.4091 60.224 44.4091C58.7278 44.4091 57.4967 44.7973 56.5308 45.5739C55.5649 46.3504 54.85 47.3684 54.3859 48.6278C53.9219 49.8873 53.6899 51.2462 53.6899 52.7045C53.6899 54.1629 53.9219 55.517 54.3859 56.767C54.85 58.017 55.5649 59.0256 56.5308 59.7926C57.4967 60.5597 58.7278 60.9432 60.224 60.9432Z" fill="#848484"/>
</g>
<path d="M0 0H100H0ZM100 84C100 94.4934 91.4934 103 81 103H19C8.50659 103 0 94.4934 0 84C0 91.1797 7.16344 97 16 97H84C92.8366 97 100 91.1797 100 84ZM0 100V0V100ZM100 0V100V0Z" fill="#B5B5B5" mask="url(#path-1-inside-1_520_661)"/>
<defs>
<filter id="filter0_i_520_661" x="30.5229" y="34.4092" width="39.5874" height="33.5454" filterUnits="userSpaceOnUse" color-interpolation-filters="sRGB">
<feFlood flood-opacity="0" result="BackgroundImageFix"/>
<feBlend mode="normal" in="SourceGraphic" in2="BackgroundImageFix" result="shape"/>
<feColorMatrix in="SourceAlpha" type="matrix" values="0 0 0 0 0 0 0 0 0 0 0 0 0 0 0 0 0 0 127 0" result="hardAlpha"/>
<feOffset dy="4"/>
<feGaussianBlur stdDeviation="2"/>
<feComposite in2="hardAlpha" operator="arithmetic" k2="-1" k3="1"/>
<feColorMatrix type="matrix" values="0 0 0 0 0 0 0 0 0 0 0 0 0 0 0 0 0 0 0.26 0"/>
<feBlend mode="normal" in2="shape" result="effect1_innerShadow_520_661"/>
</filter>
</defs>
</svg>
